<svg width="170" height="29" viewBox="0 0 170 29" fill="none" xmlns="http://www.w3.org/2000/svg">
<path d="M68.6352 19.7426L74.3675 12.6694H75.514L85.8128 0H79.2837L69.0044 12.8249H68.6352V19.7426ZM63 28.0399H68.8684V0H63V28.0399ZM79.5169 28.0399H86.5317L74.7562 10.9012L70.5201 14.7486L79.5169 28.0399Z" fill="white"/>
<path d="M88.9996 28.0399H94.8679V0H88.9996V28.0399Z" fill="white"/>
<path d="M105.458 28.0399H111.191L116.359 9.24947H116.476L121.625 28.0399H127.358L134.8 0H128.718L124.268 20.0923H124.151L118.983 0H113.833L108.664 20.0923H108.548L104.117 0H98.0353L105.458 28.0399Z" fill="white"/>
<path d="M137.967 28.0399H143.836V0H137.967V28.0399Z" fill="white"/>
<path d="M164.239 19.7426L158.506 12.6694H157.36L147.061 0H153.59L163.87 12.8249H164.239V19.7426ZM169.874 28.0399H164.006V0H169.874V28.0399ZM153.357 28.0399H146.342L158.118 10.9012L162.354 14.7486L153.357 28.0399Z" fill="white"/>
<path d="M3.20622 18.6485L8.56936 12.7413H8.74425L19.898 0.0913086H15.5065L3.61429 13.8489H3.20622V18.6485ZM0 28.1312H3.4977V0.0913086H0V28.1312ZM16.4586 28.1312H20.9279L8.76368 12.275L6.29586 14.7622L16.4586 28.1312Z" fill="#FF006B"/>
<path d="M34.2899 18.6485L28.9268 12.7413H28.7519L17.5982 0.0913086H21.9897L33.8819 13.8489H34.2899V18.6485ZM37.4962 28.1312H33.9985V0.0913086H37.4962V28.1312ZM21.0376 28.1312H16.5683L28.7325 12.275L31.2003 14.7622L21.0376 28.1312Z" fill="#FF006B"/>
</svg>
