<svg width="37" height="19" viewBox="0 0 37 19" fill="none" xmlns="http://www.w3.org/2000/svg">
<path d="M2 8.7671C17.8747 8.7671 4.76289 8.7671 20.6376 8.7671C24.3603 8.7671 28.0831 8.7671 31.8058 8.7671C32.1495 8.7671 33.7315 9.06349 33.0355 8.5067C31.6517 7.39969 30.2709 5.87232 28.9993 4.60071C28.2191 3.82046 27.4146 3.05814 26.6557 2.25712C25.9268 1.48769 26.6788 2.66423 26.9306 2.93705C28.682 4.83437 29.8393 6.85143 32.3845 7.84123C32.9888 8.07625 33.689 8.2463 34.3375 8.2463C34.885 8.2463 34.0808 8.47078 33.889 8.7671C33.4165 9.49739 32.4397 10.1882 31.8637 10.9082C31.0808 11.8868 30.1613 13.029 29.795 14.2499C29.2485 16.0716 28.9993 15.6277 28.9993 17.5" stroke="#000C12" stroke-width="3" stroke-linecap="round"/>
</svg>
