<svg width="30" height="18" viewBox="0 0 30 18" fill="none" xmlns="http://www.w3.org/2000/svg">
<path d="M1.61072 6.94369C14.533 6.94369 3.85975 6.94369 16.782 6.94369C19.8123 6.94369 22.8427 6.94369 25.8731 6.94369C26.1528 6.94369 27.4406 7.18496 26.874 6.73172C25.7476 5.8306 24.6236 4.5873 23.5885 3.55219C22.9534 2.91706 22.2985 2.29652 21.6808 1.64448C21.0875 1.01816 21.6996 1.97588 21.9046 2.19795C23.3302 3.7424 24.2723 5.38431 26.3441 6.19002C26.8361 6.38133 27.406 6.51975 27.9339 6.51975C28.3796 6.51975 27.7249 6.70249 27.5688 6.94369C27.1842 7.53816 26.3891 8.10046 25.9202 8.68654C25.2829 9.48314 24.5344 10.4129 24.2362 11.4068C23.7914 12.8896 23.8005 14.3223 23.8005 15.8464" stroke="#03131B" stroke-width="2.44204" stroke-linecap="round"/>
</svg>
