<svg width="30" height="18" viewBox="0 0 30 18" fill="none" xmlns="http://www.w3.org/2000/svg">
<path d="M1.61072 7.52768C14.533 7.52768 3.85975 7.52768 16.782 7.52768C19.8123 7.52768 22.8427 7.52768 25.8731 7.52768C26.1528 7.52768 27.4406 7.76895 26.874 7.31571C25.7476 6.41458 24.6236 5.17129 23.5885 4.13618C22.9534 3.50105 22.2985 2.88051 21.6808 2.22846C21.0875 1.60214 21.6996 2.55986 21.9046 2.78193C23.3302 4.32638 24.2723 5.9683 26.3441 6.77401C26.8361 6.96532 27.406 7.10374 27.9339 7.10374C28.3796 7.10374 27.7249 7.28647 27.5688 7.52768C27.1842 8.12214 26.3891 8.68444 25.9202 9.27053C25.2829 10.0671 24.5344 10.9969 24.2362 11.9908C23.7914 13.4736 23.8005 14.9063 23.8005 16.4304" stroke="#03131B" stroke-width="2.44204" stroke-linecap="round"/>
</svg>
